<svg id="Layer_1" data-name="Layer 1" xmlns="http://www.w3.org/2000/svg" viewBox="1 17 480 138">
    <defs>
        <style>.cls-1{fill:none}</style>
    </defs>
    <path d="m448.07-1-9.62 17.24-8.36 15L369.93 139H-1V-1Z" transform="translate(1 17)" />
    <path class="cls-1" d="M-1 139Z" transform="translate(1 17)" />
    <text transform="translate(262.99 82.23)" style="fill:#fff;font-size:57px;isolation:isolate;font-family:ArialMT,Arial">Art</text>
    <text transform="translate(18.69 129.02)" style="font-size:54px;fill:#fff;isolation:isolate;font-family:ArialMT,Arial">Development</text>
    <path class="cls-1" d="m382.44 116.43 47.65-85.23 8.36-15M369.83 139 362 153" transform="translate(1 17)" />
    <path d="m438.76 15.76-56.42 100.91a59 59 0 0 1 56.42-100.91Z" transform="translate(1 17)" style="fill:#0b72b9" />
    <path d="M479.89 72a59 59 0 0 1-97.55 44.67l56.42-100.91A59 59 0 0 1 479.89 72Z" transform="translate(1 17)" />
    <g id="Group_186" data-name="Group 186">
        <g id="Group_185" data-name="Group 185">
            <g id="Words">
                <path id="Path_59" data-name="Path 59" d="m435.2 25.81-.09 80.38h-7.67l.06-52.25-29.4 52.21h-7.94Z" transform="translate(1 17)" style="fill:#fff" />
            </g>
        </g>
    </g>
    <path class="cls-1" d="m457-17-8.93 16-9.62 17.24-8.36 15L369.93 139 361 155" transform="translate(1 17)" />
</svg>